<svg xmlns="http://www.w3.org/2000/svg" xmlns:xlink="http://www.w3.org/1999/xlink" width="500" zoomAndPan="magnify" viewBox="0 0 375 374.999991" height="500" preserveAspectRatio="xMidYMid meet" version="1.0"><defs><clipPath id="a33984f982"><path d="M 168.632812 294.21875 L 191.765625 294.21875 L 191.765625 297.96875 L 168.632812 297.96875 Z M 168.632812 294.21875 " clip-rule="nonzero"/></clipPath></defs><path fill="#9d97cf" d="M 41.667969 51.503906 C 37.5 51.503906 34.027344 54.976562 34.027344 59.144531 C 34.027344 63.308594 37.5 66.78125 41.667969 66.78125 C 45.832031 66.78125 49.304688 63.308594 49.304688 59.144531 C 49.535156 54.976562 46.066406 51.503906 41.667969 51.503906 Z M 41.667969 62.152344 C 40.046875 62.152344 38.65625 60.765625 38.65625 59.144531 C 38.65625 57.523438 40.046875 56.132812 41.667969 56.132812 C 43.285156 56.132812 44.675781 57.523438 44.675781 59.144531 C 44.90625 60.765625 43.519531 62.152344 41.667969 62.152344 Z M 41.667969 62.152344 " fill-opacity="1" fill-rule="nonzero"/><path fill="#9d97cf" d="M 60.878906 51.503906 C 56.714844 51.503906 53.242188 54.976562 53.242188 59.144531 C 53.242188 63.308594 56.714844 66.78125 60.878906 66.78125 C 65.046875 66.78125 68.519531 63.308594 68.519531 59.144531 C 68.75 54.976562 65.277344 51.503906 60.878906 51.503906 Z M 60.878906 62.152344 C 59.257812 62.152344 57.871094 60.765625 57.871094 59.144531 C 57.871094 57.523438 59.257812 56.132812 60.878906 56.132812 C 62.5 56.132812 63.890625 57.523438 63.890625 59.144531 C 64.121094 60.765625 62.730469 62.152344 60.878906 62.152344 Z M 60.878906 62.152344 " fill-opacity="1" fill-rule="nonzero"/><path fill="#9d97cf" d="M 80.09375 51.503906 C 75.925781 51.503906 72.453125 54.976562 72.453125 59.144531 C 72.453125 63.308594 75.925781 66.78125 80.09375 66.78125 C 84.257812 66.78125 87.730469 63.308594 87.730469 59.144531 C 87.964844 54.976562 84.492188 51.503906 80.09375 51.503906 Z M 80.09375 62.152344 C 78.472656 62.152344 77.082031 60.765625 77.082031 59.144531 C 77.082031 57.523438 78.472656 56.132812 80.09375 56.132812 C 81.714844 56.132812 83.101562 57.523438 83.101562 59.144531 C 83.332031 60.765625 81.945312 62.152344 80.09375 62.152344 Z M 80.09375 62.152344 " fill-opacity="1" fill-rule="nonzero"/><path fill="#9d97cf" d="M 333.101562 51.503906 L 103.242188 51.503906 C 99.074219 51.503906 95.601562 54.976562 95.601562 59.144531 C 95.601562 63.308594 99.074219 66.78125 103.242188 66.78125 L 333.332031 66.78125 C 337.5 66.78125 340.972656 63.308594 340.972656 59.144531 C 340.972656 54.976562 337.5 51.503906 333.101562 51.503906 Z M 333.101562 62.152344 L 103.242188 62.152344 C 101.621094 62.152344 100.230469 60.765625 100.230469 59.144531 C 100.230469 57.523438 101.621094 56.132812 103.242188 56.132812 L 333.332031 56.132812 C 334.953125 56.132812 336.34375 57.523438 336.34375 59.144531 C 336.34375 60.765625 334.953125 62.152344 333.101562 62.152344 Z M 333.101562 62.152344 " fill-opacity="1" fill-rule="nonzero"/><path fill="#9d97cf" d="M 375 187.382812 C 375 159.605469 368.980469 132.753906 357.40625 107.984375 L 357.40625 51.734375 C 357.40625 44.792969 351.621094 39.003906 344.675781 39.003906 L 302.082031 39.003906 C 268.980469 13.542969 229.628906 0.117188 187.730469 0.117188 C 145.832031 0.117188 106.019531 13.308594 73.148438 38.773438 L 30.324219 38.773438 C 23.378906 38.773438 17.59375 44.558594 17.59375 51.503906 L 17.59375 107.753906 C 6.019531 132.753906 0 159.605469 0 187.382812 C 0 215.160156 6.019531 241.78125 17.59375 266.78125 L 17.59375 285.765625 C 17.59375 292.707031 23.378906 298.496094 30.324219 298.496094 L 36.574219 298.496094 C 70.371094 344.328125 125.230469 374.882812 187.5 374.882812 C 247.453125 374.882812 303.472656 345.949219 338.425781 298.496094 L 344.675781 298.496094 C 351.621094 298.496094 357.40625 292.707031 357.40625 285.765625 L 357.40625 266.78125 C 368.980469 242.015625 375 215.160156 375 187.382812 Z M 370.371094 187.382812 C 370.371094 210.996094 365.972656 233.679688 357.40625 255.207031 L 357.40625 119.558594 C 365.972656 141.089844 370.371094 163.773438 370.371094 187.382812 Z M 187.5 4.515625 C 226.15625 4.515625 262.964844 16.320312 294.214844 38.773438 L 80.785156 38.773438 C 112.035156 16.320312 148.84375 4.515625 187.5 4.515625 Z M 22.222656 51.503906 C 22.222656 47.105469 25.925781 43.402344 30.324219 43.402344 L 344.445312 43.402344 C 348.84375 43.402344 352.546875 47.105469 352.546875 51.503906 L 352.546875 74.652344 L 22.222656 74.652344 Z M 4.628906 187.382812 C 4.628906 163.773438 9.027344 141.089844 17.59375 119.558594 L 17.59375 255.207031 C 9.027344 233.679688 4.628906 210.996094 4.628906 187.382812 Z M 187.5 370.253906 C 143.054688 370.253906 98.609375 353.820312 63.890625 322.105469 L 310.878906 322.105469 C 277.546875 352.894531 233.101562 370.253906 187.5 370.253906 Z M 315.972656 317.476562 L 59.027344 317.476562 C 53.007812 311.691406 47.453125 305.207031 42.359375 298.496094 L 332.640625 298.496094 C 327.546875 305.207031 321.992188 311.691406 315.972656 317.476562 Z M 344.675781 293.867188 L 30.324219 293.867188 C 25.925781 293.867188 22.222656 290.160156 22.222656 285.765625 L 22.222656 79.515625 L 352.777344 79.515625 L 352.777344 285.765625 C 352.777344 290.394531 349.074219 293.867188 344.675781 293.867188 Z M 344.675781 293.867188 " fill-opacity="1" fill-rule="nonzero"/><path fill="#9d97cf" d="M 123.84375 338.542969 L 179.859375 338.542969 C 181.25 338.542969 182.175781 337.617188 182.175781 336.226562 C 182.175781 334.839844 181.25 333.910156 179.859375 333.910156 L 123.84375 333.910156 C 122.453125 333.910156 121.527344 334.839844 121.527344 336.226562 C 121.527344 337.382812 122.453125 338.542969 123.84375 338.542969 Z M 123.84375 338.542969 " fill-opacity="1" fill-rule="nonzero"/><path fill="#9d97cf" d="M 188.890625 338.542969 L 198.148438 338.542969 C 199.535156 338.542969 200.464844 337.617188 200.464844 336.226562 C 200.464844 334.839844 199.535156 333.910156 198.148438 333.910156 L 188.890625 333.910156 C 187.5 333.910156 186.574219 334.839844 186.574219 336.226562 C 186.574219 337.382812 187.5 338.542969 188.890625 338.542969 Z M 188.890625 338.542969 " fill-opacity="1" fill-rule="nonzero"/><path fill="#9d97cf" d="M 206.019531 338.542969 L 212.035156 338.542969 C 213.425781 338.542969 214.351562 337.617188 214.351562 336.226562 C 214.351562 334.839844 213.425781 333.910156 212.035156 333.910156 L 206.019531 333.910156 C 204.628906 333.910156 203.703125 334.839844 203.703125 336.226562 C 203.703125 337.382812 204.628906 338.542969 206.019531 338.542969 Z M 206.019531 338.542969 " fill-opacity="1" fill-rule="nonzero"/><path fill="#9d97cf" d="M 192.824219 347.570312 C 192.824219 348.957031 193.75 349.882812 195.140625 349.882812 L 251.15625 349.882812 C 252.546875 349.882812 253.472656 348.957031 253.472656 347.570312 C 253.472656 346.179688 252.546875 345.253906 251.15625 345.253906 L 195.140625 345.253906 C 193.980469 345.253906 192.824219 346.179688 192.824219 347.570312 Z M 192.824219 347.570312 " fill-opacity="1" fill-rule="nonzero"/><path fill="#9d97cf" d="M 174.535156 347.570312 C 174.535156 348.957031 175.464844 349.882812 176.851562 349.882812 L 186.109375 349.882812 C 187.5 349.882812 188.425781 348.957031 188.425781 347.570312 C 188.425781 346.179688 187.5 345.253906 186.109375 345.253906 L 176.851562 345.253906 C 175.695312 345.253906 174.535156 346.179688 174.535156 347.570312 Z M 174.535156 347.570312 " fill-opacity="1" fill-rule="nonzero"/><path fill="#9d97cf" d="M 168.980469 345.253906 L 162.964844 345.253906 C 161.574219 345.253906 160.648438 346.179688 160.648438 347.570312 C 160.648438 348.957031 161.574219 349.882812 162.964844 349.882812 L 168.980469 349.882812 C 170.371094 349.882812 171.296875 348.957031 171.296875 347.570312 C 171.296875 346.179688 170.371094 345.253906 168.980469 345.253906 Z M 168.980469 345.253906 " fill-opacity="1" fill-rule="nonzero"/><path fill="#9d97cf" d="M 302.777344 217.941406 L 293.519531 214.003906 C 293.054688 212.382812 292.359375 210.765625 291.433594 209.375 L 295.140625 200.117188 C 295.371094 199.191406 295.371094 198.265625 294.675781 197.570312 L 285.878906 188.773438 C 285.183594 188.078125 284.257812 187.847656 283.332031 188.308594 L 274.074219 192.015625 C 272.453125 191.320312 270.832031 190.625 269.214844 189.929688 L 265.277344 180.671875 C 264.816406 179.746094 264.121094 179.28125 263.195312 179.28125 L 251.15625 179.28125 C 250.230469 179.28125 249.304688 179.746094 249.074219 180.671875 L 245.140625 189.929688 C 243.519531 190.394531 241.898438 191.089844 240.277344 191.78125 L 231.019531 188.078125 C 230.09375 187.617188 229.167969 187.847656 228.472656 188.542969 L 219.675781 197.339844 C 218.980469 198.03125 218.75 198.957031 219.214844 199.882812 L 222.917969 209.144531 C 222.222656 210.765625 221.527344 212.382812 221.066406 213.773438 L 211.804688 217.707031 C 210.878906 218.171875 210.417969 218.867188 210.417969 219.792969 L 210.417969 232.292969 C 210.417969 233.21875 210.878906 234.144531 211.804688 234.375 L 221.066406 238.308594 C 221.527344 239.929688 222.222656 241.550781 222.917969 242.941406 L 219.214844 252.199219 C 218.980469 253.125 218.980469 254.050781 219.675781 254.746094 L 228.472656 263.542969 C 229.167969 264.234375 230.09375 264.46875 231.019531 264.003906 L 240.277344 260.300781 C 241.667969 260.996094 243.285156 261.691406 244.90625 262.152344 L 248.84375 271.410156 C 249.304688 272.339844 250 272.800781 250.925781 272.800781 L 263.425781 272.800781 C 264.351562 272.800781 265.277344 272.339844 265.507812 271.410156 L 269.445312 262.152344 C 271.066406 261.691406 272.683594 260.996094 274.304688 260.070312 L 283.566406 263.773438 C 284.492188 264.234375 285.417969 264.003906 286.109375 263.308594 L 294.90625 254.515625 C 295.601562 253.820312 295.832031 252.894531 295.371094 251.96875 L 291.667969 242.707031 C 292.359375 241.089844 293.054688 239.46875 293.75 237.847656 L 303.007812 233.910156 C 303.933594 233.449219 304.398438 232.753906 304.398438 231.828125 L 304.398438 219.328125 C 304.167969 219.097656 303.703125 218.171875 302.777344 217.941406 Z M 299.535156 230.902344 L 290.742188 234.605469 C 290.046875 234.839844 289.582031 235.300781 289.351562 235.996094 C 288.65625 238.078125 287.964844 239.929688 286.804688 242.015625 C 286.574219 242.707031 286.34375 243.402344 286.804688 243.867188 L 290.277344 252.660156 L 283.566406 259.375 L 274.769531 255.902344 C 274.074219 255.671875 273.378906 255.671875 272.917969 255.902344 C 271.066406 256.828125 268.980469 257.753906 266.898438 258.449219 C 266.203125 258.679688 265.742188 259.144531 265.507812 259.839844 L 261.804688 268.632812 L 252.316406 268.632812 L 248.609375 259.839844 C 248.378906 259.144531 247.917969 258.679688 247.222656 258.449219 C 245.140625 257.753906 243.054688 257.058594 241.203125 255.902344 C 240.507812 255.671875 239.816406 255.441406 239.351562 255.902344 L 230.554688 259.375 L 223.84375 252.660156 L 227.316406 243.867188 C 227.546875 243.171875 227.546875 242.476562 227.316406 242.015625 C 226.390625 240.160156 225.464844 238.078125 224.769531 235.996094 C 224.535156 235.300781 224.074219 234.839844 223.378906 234.605469 L 214.582031 230.902344 L 214.582031 221.410156 L 223.378906 217.707031 C 224.074219 217.476562 224.535156 217.015625 224.769531 216.320312 C 225.464844 214.234375 226.15625 212.382812 227.316406 210.300781 C 227.546875 209.605469 227.777344 208.910156 227.316406 208.449219 L 223.84375 199.652344 L 230.554688 192.941406 L 239.351562 196.410156 C 240.046875 196.644531 240.742188 196.644531 241.203125 196.410156 C 243.054688 195.484375 245.140625 194.558594 247.222656 193.867188 C 247.917969 193.632812 248.378906 193.171875 248.609375 192.476562 L 252.316406 183.679688 L 261.804688 183.679688 L 265.507812 192.476562 C 265.742188 193.171875 266.203125 193.632812 266.898438 193.867188 C 268.980469 194.558594 270.832031 195.253906 272.917969 196.410156 C 273.609375 196.644531 274.304688 196.875 274.769531 196.410156 L 283.566406 192.941406 L 290.277344 199.652344 L 286.804688 208.449219 C 286.574219 209.144531 286.574219 209.839844 286.804688 210.300781 C 287.730469 212.152344 288.65625 214.234375 289.351562 216.320312 C 289.582031 217.015625 290.046875 217.476562 290.742188 217.707031 L 299.535156 221.410156 Z M 299.535156 230.902344 " fill-opacity="1" fill-rule="nonzero"/><path fill="#9d97cf" d="M 257.175781 202.894531 C 244.214844 202.894531 233.796875 213.308594 233.796875 226.273438 C 233.796875 239.234375 244.214844 249.652344 257.175781 249.652344 C 270.140625 249.652344 280.554688 239.234375 280.554688 226.273438 C 280.554688 213.308594 270.140625 202.894531 257.175781 202.894531 Z M 257.175781 245.023438 C 246.757812 245.023438 238.425781 236.691406 238.425781 226.273438 C 238.425781 215.855469 246.757812 207.523438 257.175781 207.523438 C 267.59375 207.523438 275.925781 215.855469 275.925781 226.273438 C 275.925781 236.691406 267.59375 245.023438 257.175781 245.023438 Z M 257.175781 245.023438 " fill-opacity="1" fill-rule="nonzero"/><path fill="#9d97cf" d="M 216.203125 184.144531 L 225 175.347656 C 225.695312 174.652344 225.925781 173.726562 225.464844 172.800781 L 221.757812 163.542969 C 222.453125 161.921875 223.148438 160.300781 223.84375 158.679688 L 233.101562 154.746094 C 234.027344 154.28125 234.492188 153.589844 234.492188 152.660156 L 234.492188 140.160156 C 234.492188 139.234375 234.027344 138.308594 233.101562 138.078125 L 223.84375 134.144531 C 223.378906 132.523438 222.683594 130.902344 221.757812 129.515625 L 225.464844 120.253906 C 225.695312 119.328125 225.695312 118.402344 225 117.707031 L 216.203125 108.910156 C 215.507812 108.21875 214.582031 107.984375 213.65625 108.449219 L 204.398438 112.152344 C 202.777344 111.457031 201.15625 110.765625 199.535156 110.070312 L 195.601562 100.808594 C 195.140625 99.882812 194.445312 99.421875 193.519531 99.421875 L 181.019531 99.421875 C 180.09375 99.421875 179.167969 99.882812 178.933594 100.808594 L 175 110.070312 C 173.378906 110.53125 171.757812 111.226562 170.140625 111.921875 L 160.878906 108.21875 C 159.953125 107.753906 159.027344 107.984375 158.332031 108.679688 L 149.535156 117.476562 C 148.84375 118.171875 148.609375 119.097656 149.074219 120.023438 L 152.777344 129.28125 C 152.082031 130.902344 151.390625 132.523438 150.925781 133.910156 L 141.667969 137.847656 C 140.742188 138.308594 140.277344 139.003906 140.277344 139.929688 L 140.277344 152.429688 C 140.277344 153.355469 140.742188 154.28125 141.667969 154.515625 L 150.925781 158.449219 C 151.390625 160.070312 152.082031 161.691406 152.777344 163.078125 L 149.074219 172.339844 C 148.84375 173.265625 148.84375 174.191406 149.535156 174.882812 L 158.332031 183.679688 C 159.027344 184.375 159.953125 184.605469 160.878906 184.144531 L 170.140625 180.441406 C 171.527344 181.132812 173.148438 181.828125 174.769531 182.292969 L 178.703125 191.550781 C 179.167969 192.476562 179.859375 192.941406 180.785156 192.941406 L 193.285156 192.941406 C 194.214844 192.941406 195.140625 192.476562 195.371094 191.550781 L 199.304688 182.292969 C 200.925781 181.828125 202.546875 181.132812 204.167969 180.207031 L 213.425781 183.910156 C 214.582031 185.070312 215.507812 184.839844 216.203125 184.144531 Z M 203.242188 176.503906 C 201.390625 177.429688 199.304688 178.355469 197.222656 179.050781 C 196.527344 179.28125 196.066406 179.746094 195.832031 180.441406 L 192.128906 189.234375 L 182.640625 189.234375 L 178.933594 180.441406 C 178.703125 179.746094 178.242188 179.28125 177.546875 179.050781 C 175.464844 178.355469 173.378906 177.660156 171.527344 176.503906 C 170.832031 176.273438 170.140625 176.042969 169.675781 176.503906 L 160.878906 179.746094 L 154.167969 173.03125 L 157.640625 164.234375 C 157.871094 163.542969 157.871094 162.847656 157.640625 162.382812 C 156.714844 160.53125 155.785156 158.449219 155.09375 156.367188 C 154.859375 155.671875 154.398438 155.207031 153.703125 154.976562 L 144.90625 151.273438 L 144.90625 141.78125 L 153.703125 138.078125 C 154.398438 137.847656 154.859375 137.382812 155.09375 136.691406 C 155.785156 134.605469 156.480469 132.753906 157.640625 130.671875 C 157.871094 129.976562 158.101562 129.28125 157.640625 128.820312 L 154.167969 120.023438 L 160.878906 113.308594 L 169.675781 116.78125 C 170.371094 117.015625 171.066406 117.015625 171.527344 116.78125 C 173.378906 115.855469 175.464844 114.929688 177.546875 114.234375 C 178.242188 114.003906 178.703125 113.542969 178.933594 112.847656 L 182.640625 104.050781 L 192.128906 104.050781 L 195.832031 112.847656 C 196.066406 113.542969 196.527344 114.003906 197.222656 114.234375 C 199.304688 114.929688 201.15625 115.625 203.242188 116.78125 C 203.933594 117.015625 204.628906 117.246094 205.09375 116.78125 L 213.890625 113.308594 L 220.601562 120.023438 L 217.128906 128.820312 C 216.898438 129.515625 216.898438 130.207031 217.128906 130.671875 C 218.054688 132.523438 218.980469 134.605469 219.675781 136.691406 C 219.90625 137.382812 220.371094 137.847656 221.066406 138.078125 L 229.859375 141.78125 L 229.859375 151.273438 L 221.066406 154.976562 C 220.371094 155.207031 219.90625 155.671875 219.675781 156.367188 C 218.980469 158.449219 218.285156 160.300781 217.128906 162.382812 C 216.898438 163.078125 216.667969 163.773438 217.128906 164.234375 L 220.601562 173.03125 L 214.121094 179.746094 L 205.324219 176.273438 C 204.628906 176.042969 203.933594 176.042969 203.242188 176.503906 Z M 203.242188 176.503906 " fill-opacity="1" fill-rule="nonzero"/><path fill="#9d97cf" d="M 187.5 123.265625 C 174.535156 123.265625 164.121094 133.679688 164.121094 146.644531 C 164.121094 159.605469 174.535156 170.023438 187.5 170.023438 C 200.464844 170.023438 210.878906 159.605469 210.878906 146.644531 C 210.878906 133.679688 200.230469 123.265625 187.5 123.265625 Z M 187.5 165.160156 C 177.082031 165.160156 168.75 156.828125 168.75 146.410156 C 168.75 135.996094 177.082031 127.660156 187.5 127.660156 C 197.917969 127.660156 206.25 135.996094 206.25 146.410156 C 206.25 156.828125 197.683594 165.160156 187.5 165.160156 Z M 187.5 165.160156 " fill-opacity="1" fill-rule="nonzero"/><path fill="#9d97cf" d="M 163.195312 217.941406 L 153.933594 214.003906 C 153.472656 212.382812 152.777344 210.765625 151.851562 209.375 L 155.554688 200.117188 C 155.785156 199.191406 155.785156 198.265625 155.09375 197.570312 L 146.527344 188.542969 C 145.832031 187.847656 144.90625 187.617188 143.980469 188.078125 L 134.722656 191.78125 C 133.101562 191.089844 131.480469 190.394531 129.859375 189.699219 L 125.925781 180.441406 C 125.695312 179.976562 124.769531 179.28125 123.84375 179.28125 L 111.34375 179.28125 C 110.417969 179.28125 109.492188 179.746094 109.257812 180.671875 L 105.324219 189.929688 C 103.703125 190.394531 102.082031 191.089844 100.464844 191.78125 L 91.203125 188.078125 C 90.277344 187.617188 89.351562 187.847656 88.65625 188.542969 L 79.859375 197.339844 C 79.167969 198.03125 78.933594 198.957031 79.398438 199.882812 L 83.101562 209.144531 C 82.40625 210.765625 81.714844 212.382812 81.25 213.773438 L 71.992188 217.707031 C 71.066406 218.171875 70.601562 218.867188 70.601562 219.792969 L 70.601562 232.292969 C 70.601562 233.21875 71.066406 234.144531 71.992188 234.375 L 81.25 238.308594 C 81.714844 239.929688 82.40625 241.550781 83.101562 242.941406 L 79.398438 252.199219 C 79.167969 253.125 79.167969 254.050781 79.859375 254.746094 L 88.65625 263.542969 C 89.351562 264.234375 90.277344 264.46875 91.203125 264.003906 L 100.464844 260.300781 C 101.851562 260.996094 103.472656 261.691406 105.09375 262.152344 L 109.027344 271.410156 C 109.492188 272.339844 110.183594 272.800781 111.109375 272.800781 L 123.84375 272.800781 C 124.769531 272.800781 125.695312 272.339844 125.925781 271.410156 L 129.859375 262.152344 C 131.480469 261.691406 133.101562 260.996094 134.722656 260.070312 L 143.980469 263.773438 C 144.90625 264.234375 145.832031 264.003906 146.527344 263.308594 L 155.324219 254.515625 C 156.019531 253.820312 156.25 252.894531 155.785156 251.96875 L 152.082031 242.707031 C 152.777344 241.089844 153.472656 239.46875 154.167969 237.847656 L 163.425781 233.910156 C 164.351562 233.449219 164.816406 232.753906 164.816406 231.828125 L 164.816406 219.328125 C 164.582031 219.097656 164.121094 218.171875 163.195312 217.941406 Z M 159.953125 230.902344 L 151.15625 234.605469 C 150.464844 234.839844 150 235.300781 149.769531 235.996094 C 149.074219 238.078125 148.378906 239.929688 147.222656 242.015625 C 146.992188 242.707031 146.757812 243.402344 147.222656 243.867188 L 150.695312 252.660156 L 143.980469 259.375 L 135.183594 255.902344 C 134.492188 255.671875 133.796875 255.671875 133.332031 255.902344 C 131.480469 256.828125 129.398438 257.753906 127.316406 258.449219 C 126.621094 258.679688 126.15625 259.144531 125.925781 259.839844 L 122.222656 268.632812 L 112.730469 268.632812 L 109.027344 259.839844 C 108.796875 259.144531 108.332031 258.679688 107.640625 258.449219 C 105.554688 257.753906 103.472656 257.058594 101.621094 255.902344 C 100.925781 255.671875 100.230469 255.441406 99.769531 255.902344 L 90.972656 259.375 L 84.257812 252.660156 L 87.730469 243.867188 C 87.964844 243.171875 87.964844 242.476562 87.730469 242.015625 C 86.804688 240.160156 85.878906 238.078125 85.183594 235.996094 C 84.953125 235.300781 84.492188 234.839844 83.796875 234.605469 L 75 230.902344 L 75 221.410156 L 83.796875 217.707031 C 84.492188 217.476562 84.953125 217.015625 85.183594 216.320312 C 85.878906 214.234375 86.574219 212.382812 87.730469 210.300781 C 87.964844 209.605469 88.195312 208.910156 87.730469 208.449219 L 84.492188 199.652344 L 91.203125 192.941406 L 100 196.410156 C 100.695312 196.644531 101.390625 196.644531 101.851562 196.410156 C 103.703125 195.484375 105.785156 194.558594 107.871094 193.867188 C 108.566406 193.632812 109.027344 193.171875 109.257812 192.476562 L 112.964844 183.679688 L 122.453125 183.679688 L 126.15625 192.476562 C 126.390625 193.171875 126.851562 193.632812 127.546875 193.867188 C 129.628906 194.558594 131.480469 195.253906 133.566406 196.410156 C 134.257812 196.644531 134.953125 196.875 135.417969 196.410156 L 144.214844 192.941406 L 150.925781 199.652344 L 147.453125 208.449219 C 147.222656 209.144531 147.222656 209.839844 147.453125 210.300781 C 148.378906 212.152344 149.304688 214.234375 150 216.320312 C 150.230469 217.015625 150.695312 217.476562 151.390625 217.707031 L 160.183594 221.410156 L 160.183594 230.902344 Z M 159.953125 230.902344 " fill-opacity="1" fill-rule="nonzero"/><path fill="#9d97cf" d="M 117.59375 202.894531 C 104.628906 202.894531 94.214844 213.308594 94.214844 226.273438 C 94.214844 239.234375 104.628906 249.652344 117.59375 249.652344 C 130.554688 249.652344 140.972656 239.234375 140.972656 226.273438 C 140.972656 213.308594 130.554688 202.894531 117.59375 202.894531 Z M 117.59375 245.023438 C 107.175781 245.023438 98.84375 236.691406 98.84375 226.273438 C 98.84375 215.855469 107.175781 207.523438 117.59375 207.523438 C 128.007812 207.523438 136.34375 215.855469 136.34375 226.273438 C 136.34375 236.691406 128.007812 245.023438 117.59375 245.023438 Z M 117.59375 245.023438 " fill-opacity="1" fill-rule="nonzero"/><g clip-path="url(#a33984f982)"><path fill="#9d97cf" d="M 168.632812 294.21875 L 191.761719 294.21875 L 191.761719 297.96875 L 168.632812 297.96875 Z M 168.632812 294.21875 " fill-opacity="1" fill-rule="nonzero"/></g></svg>