<svg xmlns="http://www.w3.org/2000/svg" xmlns:xlink="http://www.w3.org/1999/xlink" width="500" zoomAndPan="magnify" viewBox="0 0 375 374.999991" height="500" preserveAspectRatio="xMidYMid meet" version="1.0"><defs><clipPath id="85f4de11b4"><path d="M 180.609375 294.96875 L 194.390625 294.96875 L 194.390625 298.71875 L 180.609375 298.71875 Z M 180.609375 294.96875 " clip-rule="nonzero"/></clipPath></defs><path fill="#9d97cf" d="M 182.175781 336.34375 C 182.175781 334.953125 181.25 334.027344 179.859375 334.027344 L 123.84375 334.027344 C 122.453125 334.027344 121.527344 334.953125 121.527344 336.34375 C 121.527344 337.730469 122.453125 338.65625 123.84375 338.65625 L 179.859375 338.65625 C 181.019531 338.65625 182.175781 337.5 182.175781 336.34375 Z M 182.175781 336.34375 " fill-opacity="1" fill-rule="nonzero"/><path fill="#9d97cf" d="M 200.464844 336.34375 C 200.464844 334.953125 199.535156 334.027344 198.148438 334.027344 L 188.890625 334.027344 C 187.5 334.027344 186.574219 334.953125 186.574219 336.34375 C 186.574219 337.730469 187.5 338.65625 188.890625 338.65625 L 198.148438 338.65625 C 199.304688 338.65625 200.464844 337.5 200.464844 336.34375 Z M 200.464844 336.34375 " fill-opacity="1" fill-rule="nonzero"/><path fill="#9d97cf" d="M 206.019531 338.65625 L 212.035156 338.65625 C 213.425781 338.65625 214.351562 337.730469 214.351562 336.34375 C 214.351562 334.953125 213.425781 334.027344 212.035156 334.027344 L 206.019531 334.027344 C 204.628906 334.027344 203.703125 334.953125 203.703125 336.34375 C 203.703125 337.5 204.628906 338.65625 206.019531 338.65625 Z M 206.019531 338.65625 " fill-opacity="1" fill-rule="nonzero"/><path fill="#9d97cf" d="M 251.15625 345.371094 L 195.140625 345.371094 C 193.75 345.371094 192.824219 346.296875 192.824219 347.683594 C 192.824219 349.074219 193.75 350 195.140625 350 L 251.15625 350 C 252.546875 350 253.472656 349.074219 253.472656 347.683594 C 253.472656 346.296875 252.546875 345.371094 251.15625 345.371094 Z M 251.15625 345.371094 " fill-opacity="1" fill-rule="nonzero"/><path fill="#9d97cf" d="M 186.109375 345.371094 L 176.851562 345.371094 C 175.464844 345.371094 174.535156 346.296875 174.535156 347.683594 C 174.535156 349.074219 175.464844 350 176.851562 350 L 186.109375 350 C 187.5 350 188.425781 349.074219 188.425781 347.683594 C 188.425781 346.296875 187.5 345.371094 186.109375 345.371094 Z M 186.109375 345.371094 " fill-opacity="1" fill-rule="nonzero"/><path fill="#9d97cf" d="M 168.980469 345.371094 L 162.964844 345.371094 C 161.574219 345.371094 160.648438 346.296875 160.648438 347.683594 C 160.648438 349.074219 161.574219 350 162.964844 350 L 168.980469 350 C 170.371094 350 171.296875 349.074219 171.296875 347.683594 C 171.296875 346.296875 170.371094 345.371094 168.980469 345.371094 Z M 168.980469 345.371094 " fill-opacity="1" fill-rule="nonzero"/><path fill="#9d97cf" d="M 373.148438 300.464844 L 346.757812 286.574219 C 365.277344 256.945312 375 222.683594 375 187.730469 C 375 144.445312 359.953125 102.316406 332.40625 68.75 L 332.40625 56.019531 C 332.40625 44.675781 323.148438 35.417969 311.804688 35.417969 L 296.992188 35.417969 C 265.046875 12.269531 227.316406 0 187.5 0 C 147.683594 0 109.953125 12.269531 77.777344 35.417969 L 62.964844 35.417969 C 51.621094 35.417969 42.359375 44.675781 42.359375 56.019531 L 42.359375 68.75 C 15.046875 102.082031 0 144.214844 0 187.5 C 0 221.066406 9.027344 253.703125 25.925781 282.640625 L 20.601562 282.640625 C 9.722656 282.640625 0.695312 291.433594 0.695312 302.546875 C 0.695312 313.425781 9.492188 322.453125 20.601562 322.453125 C 34.492188 322.453125 42.59375 322.453125 57.175781 322.453125 C 92.359375 356.25 138.65625 375 187.5 375 C 236.34375 375 282.640625 356.25 317.824219 322.222656 L 338.890625 322.222656 C 339.121094 322.222656 339.816406 321.992188 340.046875 321.992188 L 373.148438 304.398438 C 373.84375 303.933594 374.304688 303.242188 374.304688 302.316406 C 374.304688 301.621094 373.84375 300.695312 373.148438 300.464844 Z M 342.59375 284.257812 L 339.816406 282.871094 C 339.351562 282.640625 338.890625 282.640625 338.65625 282.640625 L 332.40625 282.640625 L 332.40625 76.15625 C 356.945312 107.871094 370.371094 147.222656 370.371094 187.5 C 370.371094 221.757812 360.878906 255.324219 342.59375 284.257812 Z M 47.222656 78.472656 L 328.007812 78.472656 L 328.007812 282.640625 L 47.222656 282.640625 Z M 40.742188 287.269531 C 109.953125 287.269531 268.519531 287.269531 336.574219 287.269531 L 336.574219 294.214844 L 40.742188 294.214844 Z M 36.109375 317.59375 L 29.167969 317.59375 L 29.167969 287.269531 L 36.109375 287.269531 C 36.109375 290.046875 36.109375 310.183594 36.109375 317.59375 Z M 336.574219 317.59375 L 40.742188 317.59375 L 40.742188 298.84375 L 336.574219 298.84375 Z M 187.5 4.628906 C 224.074219 4.628906 259.027344 15.277344 289.121094 35.417969 L 85.878906 35.417969 C 115.972656 15.277344 150.925781 4.628906 187.5 4.628906 Z M 47.222656 56.019531 C 47.222656 47.222656 54.398438 40.046875 63.195312 40.046875 L 312.035156 40.046875 C 320.832031 40.046875 328.007812 47.222656 328.007812 56.019531 L 328.007812 73.84375 L 47.222656 73.84375 Z M 42.59375 76.15625 L 42.59375 282.640625 C 42.359375 282.640625 30.554688 282.640625 31.25 282.640625 C 13.890625 253.933594 4.628906 221.066406 4.628906 187.5 C 4.628906 147.222656 18.054688 107.871094 42.59375 76.15625 Z M 24.304688 317.59375 L 20.601562 317.59375 C 12.269531 317.59375 5.324219 310.878906 5.324219 302.316406 C 5.324219 293.980469 12.035156 287.035156 20.601562 287.035156 L 24.535156 287.035156 L 24.535156 317.59375 Z M 63.890625 322.222656 L 311.109375 322.222656 C 277.316406 353.242188 233.566406 370.371094 187.5 370.371094 C 141.433594 370.371094 97.683594 353.242188 63.890625 322.222656 Z M 341.203125 315.972656 C 341.203125 315.742188 341.203125 291.203125 341.203125 288.65625 L 367.128906 302.316406 Z M 341.203125 315.972656 " fill-opacity="1" fill-rule="nonzero"/><path fill="#9d97cf" d="M 72.917969 45.371094 C 66.433594 45.371094 61.34375 50.464844 61.34375 56.945312 C 61.34375 63.425781 66.433594 68.519531 72.917969 68.519531 C 79.398438 68.519531 84.492188 63.425781 84.492188 56.945312 C 84.257812 50.464844 79.167969 45.371094 72.917969 45.371094 Z M 72.917969 63.890625 C 69.214844 63.890625 65.972656 60.878906 65.972656 56.945312 C 65.972656 53.242188 68.980469 50 72.917969 50 C 76.621094 50 79.859375 53.007812 79.859375 56.945312 C 79.628906 60.648438 76.621094 63.890625 72.917969 63.890625 Z M 72.917969 63.890625 " fill-opacity="1" fill-rule="nonzero"/><path fill="#9d97cf" d="M 100.464844 45.371094 C 93.980469 45.371094 88.890625 50.464844 88.890625 56.945312 C 88.890625 63.425781 93.980469 68.519531 100.464844 68.519531 C 106.945312 68.519531 112.035156 63.425781 112.035156 56.945312 C 112.035156 50.464844 106.714844 45.371094 100.464844 45.371094 Z M 100.464844 63.890625 C 96.757812 63.890625 93.519531 60.878906 93.519531 56.945312 C 93.519531 53.242188 96.527344 50 100.464844 50 C 104.167969 50 107.40625 53.007812 107.40625 56.945312 C 107.40625 60.648438 104.167969 63.890625 100.464844 63.890625 Z M 100.464844 63.890625 " fill-opacity="1" fill-rule="nonzero"/><path fill="#9d97cf" d="M 128.007812 45.371094 C 121.527344 45.371094 116.433594 50.464844 116.433594 56.945312 C 116.433594 63.425781 121.527344 68.519531 128.007812 68.519531 C 134.492188 68.519531 139.582031 63.425781 139.582031 56.945312 C 139.582031 50.464844 134.257812 45.371094 128.007812 45.371094 Z M 128.007812 63.890625 C 124.304688 63.890625 121.066406 60.878906 121.066406 56.945312 C 121.066406 53.242188 124.074219 50 128.007812 50 C 131.714844 50 134.953125 53.007812 134.953125 56.945312 C 134.953125 60.648438 131.714844 63.890625 128.007812 63.890625 Z M 128.007812 63.890625 " fill-opacity="1" fill-rule="nonzero"/><path fill="#9d97cf" d="M 302.082031 45.371094 L 165.277344 45.371094 C 158.796875 45.371094 153.703125 50.464844 153.703125 56.945312 C 153.703125 63.425781 158.796875 68.519531 165.277344 68.519531 L 302.082031 68.519531 C 308.566406 68.519531 313.65625 63.425781 313.65625 56.945312 C 313.65625 50.464844 308.566406 45.371094 302.082031 45.371094 Z M 302.082031 63.890625 L 165.277344 63.890625 C 161.574219 63.890625 158.332031 60.878906 158.332031 56.945312 C 158.332031 53.242188 161.34375 50 165.277344 50 L 302.082031 50 C 305.785156 50 309.027344 53.007812 309.027344 56.945312 C 309.027344 60.648438 306.019531 63.890625 302.082031 63.890625 Z M 302.082031 63.890625 " fill-opacity="1" fill-rule="nonzero"/><path fill="#9d97cf" d="M 110.417969 131.25 C 109.027344 131.25 108.101562 132.175781 108.101562 133.566406 C 108.101562 134.027344 108.101562 156.25 108.101562 155.09375 C 108.101562 156.480469 109.027344 157.40625 110.417969 157.40625 L 264.351562 157.40625 C 265.742188 157.40625 266.667969 156.480469 266.667969 155.09375 L 266.667969 133.566406 C 266.667969 132.175781 265.742188 131.25 264.351562 131.25 Z M 143.519531 152.082031 L 112.730469 152.082031 L 112.730469 136.574219 L 143.519531 136.574219 Z M 262.269531 152.777344 L 148.148438 152.777344 L 148.148438 135.878906 L 262.269531 135.878906 Z M 262.269531 152.777344 " fill-opacity="1" fill-rule="nonzero"/><path fill="#9d97cf" d="M 136.34375 168.054688 L 63.65625 168.054688 C 62.269531 168.054688 61.34375 168.980469 61.34375 170.371094 L 61.34375 225.925781 C 61.34375 227.316406 62.269531 228.242188 63.65625 228.242188 L 136.34375 228.242188 C 137.730469 228.242188 138.65625 227.316406 138.65625 225.925781 L 138.65625 170.371094 C 138.65625 168.980469 137.5 168.054688 136.34375 168.054688 Z M 134.027344 223.609375 L 65.972656 223.609375 L 65.972656 172.683594 L 134.027344 172.683594 Z M 134.027344 223.609375 " fill-opacity="1" fill-rule="nonzero"/><path fill="#9d97cf" d="M 223.84375 168.054688 L 151.15625 168.054688 C 149.769531 168.054688 148.84375 168.980469 148.84375 170.371094 L 148.84375 225.925781 C 148.84375 227.316406 149.769531 228.242188 151.15625 228.242188 L 223.84375 228.242188 C 225.230469 228.242188 226.15625 227.316406 226.15625 225.925781 L 226.15625 170.371094 C 226.15625 168.980469 225.230469 168.054688 223.84375 168.054688 Z M 221.527344 223.609375 L 153.472656 223.609375 L 153.472656 172.683594 L 221.527344 172.683594 Z M 221.527344 223.609375 " fill-opacity="1" fill-rule="nonzero"/><path fill="#9d97cf" d="M 311.34375 168.054688 L 238.65625 168.054688 C 237.269531 168.054688 236.34375 168.980469 236.34375 170.371094 L 236.34375 225.925781 C 236.34375 227.316406 237.269531 228.242188 238.65625 228.242188 L 311.34375 228.242188 C 312.730469 228.242188 313.65625 227.316406 313.65625 225.925781 L 313.65625 170.371094 C 313.65625 168.980469 312.730469 168.054688 311.34375 168.054688 Z M 309.027344 223.609375 L 240.972656 223.609375 L 240.972656 172.683594 L 309.027344 172.683594 Z M 309.027344 223.609375 " fill-opacity="1" fill-rule="nonzero"/><path fill="#9d97cf" d="M 172.917969 213.195312 C 173.378906 213.425781 173.609375 213.65625 174.074219 213.65625 C 174.304688 213.65625 174.769531 213.65625 175 213.425781 L 201.851562 200.464844 C 202.546875 200 203.242188 199.304688 203.242188 198.378906 C 203.242188 197.453125 202.777344 196.757812 201.851562 196.296875 L 175 182.871094 C 174.304688 182.40625 173.378906 182.640625 172.683594 183.101562 C 171.992188 183.566406 171.527344 184.257812 171.527344 184.953125 L 171.527344 211.109375 C 171.757812 212.035156 172.222656 212.730469 172.917969 213.195312 Z M 176.390625 188.65625 L 195.601562 197.917969 L 176.390625 207.175781 Z M 176.390625 188.65625 " fill-opacity="1" fill-rule="nonzero"/><path fill="#9d97cf" d="M 81.714844 214.816406 L 118.285156 214.816406 C 119.214844 214.816406 119.90625 214.351562 120.371094 213.65625 C 120.832031 212.964844 120.832031 212.035156 120.371094 211.34375 L 110.417969 194.214844 C 109.492188 192.824219 107.175781 192.824219 106.480469 194.214844 L 103.933594 198.609375 L 97.453125 187.5 C 96.992188 186.804688 96.296875 186.34375 95.371094 186.34375 C 94.445312 186.34375 93.75 186.804688 93.285156 187.5 L 79.398438 211.34375 C 78.933594 212.035156 78.933594 212.964844 79.398438 213.65625 C 80.09375 214.351562 80.785156 214.816406 81.714844 214.816406 Z M 95.371094 193.285156 L 101.851562 204.398438 C 102.316406 205.09375 103.007812 205.554688 103.933594 205.554688 C 104.859375 205.554688 105.554688 205.09375 106.019531 204.398438 L 108.566406 200 L 114.351562 210.183594 L 85.648438 210.183594 Z M 95.371094 193.285156 " fill-opacity="1" fill-rule="nonzero"/><path fill="#9d97cf" d="M 111.804688 189.121094 C 115.277344 189.121094 118.285156 186.34375 118.285156 182.640625 C 118.285156 179.167969 115.507812 176.15625 111.804688 176.15625 C 108.332031 176.15625 105.324219 178.933594 105.324219 182.640625 C 105.324219 186.34375 108.332031 189.121094 111.804688 189.121094 Z M 111.804688 181.019531 C 112.730469 181.019531 113.65625 181.714844 113.65625 182.871094 C 113.65625 183.796875 112.964844 184.722656 111.804688 184.722656 C 110.878906 184.722656 109.953125 184.027344 109.953125 182.871094 C 109.953125 181.945312 110.878906 181.019531 111.804688 181.019531 Z M 111.804688 181.019531 " fill-opacity="1" fill-rule="nonzero"/><path fill="#9d97cf" d="M 256.714844 214.816406 L 293.285156 214.816406 C 294.214844 214.816406 294.90625 214.351562 295.371094 213.65625 C 295.832031 212.964844 295.832031 212.035156 295.371094 211.34375 L 285.417969 194.214844 C 284.492188 192.824219 282.175781 192.824219 281.480469 194.214844 L 278.933594 198.609375 L 272.453125 187.5 C 271.992188 186.804688 271.296875 186.34375 270.371094 186.34375 C 269.445312 186.34375 268.75 186.804688 268.285156 187.5 L 254.398438 211.34375 C 253.933594 212.035156 253.933594 212.964844 254.398438 213.65625 C 255.324219 214.351562 256.019531 214.816406 256.714844 214.816406 Z M 270.601562 193.285156 L 277.082031 204.398438 C 277.546875 205.09375 278.242188 205.554688 279.167969 205.554688 C 280.09375 205.554688 280.785156 205.09375 281.25 204.398438 L 283.796875 200 L 289.582031 210.183594 L 261.109375 210.183594 Z M 270.601562 193.285156 " fill-opacity="1" fill-rule="nonzero"/><path fill="#9d97cf" d="M 287.035156 189.121094 C 290.507812 189.121094 293.519531 186.34375 293.519531 182.640625 C 293.519531 179.167969 290.742188 176.15625 287.035156 176.15625 C 283.566406 176.15625 280.554688 178.933594 280.554688 182.640625 C 280.554688 186.34375 283.332031 189.121094 287.035156 189.121094 Z M 287.035156 181.019531 C 287.964844 181.019531 288.890625 181.714844 288.890625 182.871094 C 288.890625 183.796875 288.195312 184.722656 287.035156 184.722656 C 286.109375 184.722656 285.183594 184.027344 285.183594 182.871094 C 285.183594 181.945312 285.878906 181.019531 287.035156 181.019531 Z M 287.035156 181.019531 " fill-opacity="1" fill-rule="nonzero"/><path fill="#9d97cf" d="M 72.917969 105.324219 L 111.109375 105.324219 C 112.5 105.324219 113.425781 104.398438 113.425781 103.007812 C 113.425781 101.621094 112.5 100.695312 111.109375 100.695312 L 72.917969 100.695312 C 71.527344 100.695312 70.601562 101.621094 70.601562 103.007812 C 70.601562 104.167969 71.527344 105.324219 72.917969 105.324219 Z M 72.917969 105.324219 " fill-opacity="1" fill-rule="nonzero"/><path fill="#9d97cf" d="M 120.601562 105.324219 L 158.796875 105.324219 C 160.183594 105.324219 161.109375 104.398438 161.109375 103.007812 C 161.109375 101.621094 160.183594 100.695312 158.796875 100.695312 L 120.601562 100.695312 C 119.214844 100.695312 118.285156 101.621094 118.285156 103.007812 C 118.285156 104.167969 119.445312 105.324219 120.601562 105.324219 Z M 120.601562 105.324219 " fill-opacity="1" fill-rule="nonzero"/><path fill="#9d97cf" d="M 168.519531 105.324219 L 206.714844 105.324219 C 208.101562 105.324219 209.027344 104.398438 209.027344 103.007812 C 209.027344 101.621094 208.101562 100.695312 206.714844 100.695312 L 168.519531 100.695312 C 167.128906 100.695312 166.203125 101.621094 166.203125 103.007812 C 166.203125 104.167969 167.128906 105.324219 168.519531 105.324219 Z M 168.519531 105.324219 " fill-opacity="1" fill-rule="nonzero"/><path fill="#9d97cf" d="M 216.203125 105.324219 L 254.398438 105.324219 C 255.785156 105.324219 256.714844 104.398438 256.714844 103.007812 C 256.714844 101.621094 255.785156 100.695312 254.398438 100.695312 L 216.203125 100.695312 C 214.816406 100.695312 213.890625 101.621094 213.890625 103.007812 C 213.890625 104.167969 214.816406 105.324219 216.203125 105.324219 Z M 216.203125 105.324219 " fill-opacity="1" fill-rule="nonzero"/><path fill="#9d97cf" d="M 263.890625 105.324219 L 302.082031 105.324219 C 303.472656 105.324219 304.398438 104.398438 304.398438 103.007812 C 304.398438 101.621094 303.472656 100.695312 302.082031 100.695312 L 263.890625 100.695312 C 262.5 100.695312 261.574219 101.621094 261.574219 103.007812 C 261.574219 104.167969 262.730469 105.324219 263.890625 105.324219 Z M 263.890625 105.324219 " fill-opacity="1" fill-rule="nonzero"/><path fill="#9d97cf" d="M 136.34375 234.257812 L 63.65625 234.257812 C 62.269531 234.257812 61.34375 235.183594 61.34375 236.574219 C 61.34375 237.964844 62.269531 238.890625 63.65625 238.890625 L 136.34375 238.890625 C 137.730469 238.890625 138.65625 237.964844 138.65625 236.574219 C 138.65625 235.417969 137.5 234.257812 136.34375 234.257812 Z M 136.34375 234.257812 " fill-opacity="1" fill-rule="nonzero"/><path fill="#9d97cf" d="M 100 246.992188 L 63.65625 246.992188 C 62.269531 246.992188 61.34375 247.917969 61.34375 249.304688 C 61.34375 250.695312 62.269531 251.621094 63.65625 251.621094 L 100 251.621094 C 101.390625 251.621094 102.316406 250.695312 102.316406 249.304688 C 102.316406 248.148438 101.15625 246.992188 100 246.992188 Z M 100 246.992188 " fill-opacity="1" fill-rule="nonzero"/><path fill="#9d97cf" d="M 223.84375 234.257812 L 151.15625 234.257812 C 149.769531 234.257812 148.84375 235.183594 148.84375 236.574219 C 148.84375 237.964844 149.769531 238.890625 151.15625 238.890625 L 223.84375 238.890625 C 225.230469 238.890625 226.15625 237.964844 226.15625 236.574219 C 226.15625 235.417969 225.230469 234.257812 223.84375 234.257812 Z M 223.84375 234.257812 " fill-opacity="1" fill-rule="nonzero"/><path fill="#9d97cf" d="M 187.5 246.992188 L 151.15625 246.992188 C 149.769531 246.992188 148.84375 247.917969 148.84375 249.304688 C 148.84375 250.695312 149.769531 251.621094 151.15625 251.621094 L 187.5 251.621094 C 188.890625 251.621094 189.816406 250.695312 189.816406 249.304688 C 189.816406 248.148438 188.890625 246.992188 187.5 246.992188 Z M 187.5 246.992188 " fill-opacity="1" fill-rule="nonzero"/><path fill="#9d97cf" d="M 311.34375 234.257812 L 238.65625 234.257812 C 237.269531 234.257812 236.34375 235.183594 236.34375 236.574219 C 236.34375 237.964844 237.269531 238.890625 238.65625 238.890625 L 311.34375 238.890625 C 312.730469 238.890625 313.65625 237.964844 313.65625 236.574219 C 313.65625 235.417969 312.730469 234.257812 311.34375 234.257812 Z M 311.34375 234.257812 " fill-opacity="1" fill-rule="nonzero"/><path fill="#9d97cf" d="M 275 246.992188 L 238.65625 246.992188 C 237.269531 246.992188 236.34375 247.917969 236.34375 249.304688 C 236.34375 250.695312 237.269531 251.621094 238.65625 251.621094 L 275 251.621094 C 276.390625 251.621094 277.316406 250.695312 277.316406 249.304688 C 277.316406 248.148438 276.390625 246.992188 275 246.992188 Z M 275 246.992188 " fill-opacity="1" fill-rule="nonzero"/><g clip-path="url(#85f4de11b4)"><path fill="#9d97cf" d="M 180.609375 294.96875 L 194.390625 294.96875 L 194.390625 298.71875 L 180.609375 298.71875 Z M 180.609375 294.96875 " fill-opacity="1" fill-rule="nonzero"/></g></svg>