<?xml version="1.0" encoding="UTF-8"?>
<svg id="Calque_1" xmlns="http://www.w3.org/2000/svg" viewBox="0 0 500 274.1">
  <defs>
    <style>
      .cls-1, .cls-2 {
        fill: #3e618b;
      }

      .cls-2 {
        font-family: LucidaConsole, 'Lucida Console';
        font-size: 42px;
        glyph-orientation-vertical: 0deg;
        text-orientation: upright;
        writing-mode: tb;
      }

      .cls-3 {
        fill: #9d96c9;
      }
    </style>
  </defs>
  <polygon class="cls-3" points="444.87 159.48 468.74 135.61 444.87 111.74 407.33 74.2 348.76 15.63 364.39 0 401.12 36.72 444.87 80.48 500 135.61 444.87 190.73 444.87 159.48"/>
  <path class="cls-1" d="M243.2,35.04v14.39l-3.87,6.71-62.3,107.91-1.31,2.27-20.32,34.99-4.16-6.93-66.21-109.65-11.79-19.46-11.79-19.54v31.33l-7.17,7.17v-15.27h-.07c-1.03-27.35-10.73-48.95-22.73-50.22v-5.86h54.27l15.02,24.86,11.76,19.5,60.24,99.81,60.35-104.5,7.39-12.82,2.7-4.69Z"/>
  <path class="cls-3" d="M407.33,196.99v8.45h-.07c-.39,10.12-1.95,19.5-4.4,27.28l-38.47,38.47-15.63-15.63,58.57-58.57Z"/>
  <polygon class="cls-3" points="151.24 258.47 135.61 274.1 61.45 199.97 61.45 168.71 151.24 258.47"/>
  <polygon class="cls-3" points="85.03 84.75 61.45 108.33 54.27 115.5 31.26 138.52 54.27 161.54 54.27 192.79 0 138.52 15.63 122.89 54.27 84.25 61.45 77.07 73.24 65.28 85.03 84.75"/>
  <polygon class="cls-3" points="151.24 18.54 112.52 57.25 100.77 37.75 135.61 2.91 151.24 18.54"/>
  <path class="cls-1" d="M467.68,255.66v5.86h-83.15v-5.86c7.56-.81,14.21-9.66,18.33-22.94,2.45-7.78,4.01-17.16,4.4-27.28h.07v-72.5h-124.21v-6.32h124.21v-52.42l37.54,37.54v93.7h.08c1.03,27.35,10.72,48.94,22.73,50.22Z"/>
  <path class="cls-1" d="M467.68,12.89v5.86c-12.01,1.28-21.7,22.88-22.73,50.23h-.08v11.5l-43.75-43.76c-4.16-10.47-10.02-17.26-16.59-17.97v-5.86h83.15Z"/>
  <path class="cls-1" d="M84,255.66v5.86H31.47v-5.86c12.01-1.28,21.7-22.87,22.73-50.22h.07v-89.94l7.18-7.17v100.66c1.7,25.65,11.08,45.46,22.55,46.67Z"/>
  <text class="cls-2" transform="translate(263.47 2.91) scale(1 .65)"><tspan x="0" y="0">MORGAN-DEV</tspan></text>
</svg>