<svg xmlns="http://www.w3.org/2000/svg" xmlns:xlink="http://www.w3.org/1999/xlink" width="500" zoomAndPan="magnify" viewBox="0 0 375 374.999991" height="500" preserveAspectRatio="xMidYMid meet" version="1.0"><defs><clipPath id="0f92d52004"><path d="M 0 12.65625 L 375 12.65625 L 375 362.15625 L 0 362.15625 Z M 0 12.65625 " clip-rule="nonzero"/></clipPath><clipPath id="931f4244c0"><path d="M 220.035156 236.390625 L 243.164062 236.390625 L 243.164062 240.140625 L 220.035156 240.140625 Z M 220.035156 236.390625 " clip-rule="nonzero"/></clipPath></defs><path fill="#9d97cf" d="M 248.609375 334.492188 L 196.296875 334.492188 C 195.140625 334.492188 194.214844 335.417969 194.214844 336.574219 C 194.214844 337.730469 195.140625 338.65625 196.296875 338.65625 L 248.609375 338.65625 C 249.769531 338.65625 250.695312 337.730469 250.695312 336.574219 C 250.695312 335.417969 249.769531 334.492188 248.609375 334.492188 Z M 248.609375 334.492188 " fill-opacity="1" fill-rule="nonzero"/><path fill="#9d97cf" d="M 187.964844 334.492188 L 179.398438 334.492188 C 178.242188 334.492188 177.316406 335.417969 177.316406 336.574219 C 177.316406 337.730469 178.242188 338.65625 179.398438 338.65625 L 187.964844 338.65625 C 189.121094 338.65625 190.046875 337.730469 190.046875 336.574219 C 190.046875 335.417969 189.121094 334.492188 187.964844 334.492188 Z M 187.964844 334.492188 " fill-opacity="1" fill-rule="nonzero"/><path fill="#9d97cf" d="M 171.992188 334.492188 L 166.203125 334.492188 C 165.046875 334.492188 164.121094 335.417969 164.121094 336.574219 C 164.121094 337.730469 165.046875 338.65625 166.203125 338.65625 L 171.992188 338.65625 C 173.148438 338.65625 174.074219 337.730469 174.074219 336.574219 C 174.074219 335.417969 173.148438 334.492188 171.992188 334.492188 Z M 171.992188 334.492188 " fill-opacity="1" fill-rule="nonzero"/><path fill="#9d97cf" d="M 129.628906 328.242188 L 181.945312 328.242188 C 183.101562 328.242188 184.027344 327.316406 184.027344 326.15625 C 184.027344 325 183.101562 324.074219 181.945312 324.074219 L 129.628906 324.074219 C 128.472656 324.074219 127.546875 325 127.546875 326.15625 C 127.546875 327.316406 128.472656 328.242188 129.628906 328.242188 Z M 129.628906 328.242188 " fill-opacity="1" fill-rule="nonzero"/><path fill="#9d97cf" d="M 190.277344 328.242188 L 199.074219 328.242188 C 200.230469 328.242188 201.15625 327.316406 201.15625 326.15625 C 201.15625 325 200.230469 323.84375 199.074219 323.84375 L 190.507812 323.84375 C 189.351562 323.84375 188.425781 324.769531 188.425781 325.925781 C 188.425781 327.082031 189.121094 328.242188 190.277344 328.242188 Z M 190.277344 328.242188 " fill-opacity="1" fill-rule="nonzero"/><path fill="#9d97cf" d="M 206.480469 328.242188 L 212.269531 328.242188 C 213.425781 328.242188 214.351562 327.316406 214.351562 326.15625 C 214.351562 325 213.425781 324.074219 212.269531 324.074219 L 206.480469 324.074219 C 205.324219 324.074219 204.398438 325 204.398438 326.15625 C 204.398438 327.316406 205.09375 328.242188 206.480469 328.242188 Z M 206.480469 328.242188 " fill-opacity="1" fill-rule="nonzero"/><g clip-path="url(#0f92d52004)"><path fill="#9d97cf" d="M 363.425781 200.695312 C 363.65625 196.296875 363.890625 191.667969 363.890625 187.269531 C 363.890625 156.945312 356.25 127.777344 341.898438 102.316406 C 342.359375 102.777344 342.824219 103.007812 343.285156 103.007812 L 354.628906 103.007812 C 355.785156 103.007812 356.714844 102.082031 356.714844 100.925781 C 356.714844 99.769531 355.785156 98.84375 354.628906 98.84375 L 343.285156 98.84375 C 342.128906 98.84375 341.203125 99.769531 341.203125 100.925781 C 341.203125 101.15625 341.203125 101.15625 341.203125 101.390625 C 330.09375 81.714844 314.816406 64.121094 296.296875 49.535156 L 296.296875 47.222656 C 296.296875 41.203125 292.824219 35.878906 287.964844 33.332031 C 285.648438 32.175781 283.101562 31.480469 280.324219 31.480469 L 267.359375 31.480469 C 242.824219 19.214844 216.433594 12.964844 188.65625 12.964844 C 160.878906 12.964844 134.492188 19.214844 109.953125 31.480469 L 96.992188 31.480469 C 94.214844 31.480469 91.667969 32.175781 89.351562 33.332031 C 84.492188 36.109375 81.019531 41.203125 81.019531 47.222656 L 81.019531 49.535156 C 38.890625 82.640625 14.351562 132.871094 14.351562 187.269531 C 14.351562 205.785156 17.359375 224.074219 22.917969 241.667969 L 2.082031 241.667969 C 0.925781 241.667969 0 242.59375 0 243.75 L 0 260.417969 C 0 261.574219 0.925781 262.5 2.082031 262.5 L 31.25 262.5 C 60.648438 323.84375 122.917969 362.035156 189.121094 362.035156 C 256.714844 362.035156 319.445312 322.683594 348.148438 259.722656 C 363.425781 256.25 375 242.59375 375 226.15625 C 375 216.203125 370.601562 207.175781 363.425781 200.695312 Z M 189.121094 16.667969 C 212.964844 16.667969 236.109375 21.527344 257.640625 31.019531 L 120.601562 31.019531 C 142.128906 21.527344 165.277344 16.667969 189.121094 16.667969 Z M 86.109375 46.992188 C 86.109375 43.054688 88.195312 39.582031 91.203125 37.5 C 91.667969 37.269531 92.128906 36.804688 92.824219 36.574219 C 93.054688 36.574219 93.054688 36.34375 93.285156 36.34375 C 94.675781 35.648438 96.296875 35.417969 97.683594 35.417969 L 280.785156 35.417969 C 282.40625 35.417969 283.796875 35.648438 285.183594 36.34375 C 285.417969 36.34375 285.417969 36.574219 285.648438 36.574219 C 286.109375 36.804688 286.804688 37.035156 287.269531 37.5 C 290.277344 39.582031 292.359375 43.054688 292.359375 46.992188 L 292.359375 59.027344 L 86.109375 59.027344 Z M 86.109375 63.195312 L 292.359375 63.195312 L 292.359375 296.992188 C 292.359375 303.472656 287.269531 308.566406 280.785156 308.566406 L 97.683594 308.566406 C 91.203125 308.566406 86.109375 303.472656 86.109375 296.992188 L 86.109375 262.5 L 95.140625 262.5 C 96.296875 262.5 97.222656 261.574219 97.222656 260.417969 L 97.222656 243.75 C 97.222656 242.59375 96.296875 241.667969 95.140625 241.667969 L 86.109375 241.667969 L 86.109375 235.878906 L 95.140625 235.878906 C 96.296875 235.878906 97.222656 234.953125 97.222656 233.796875 L 97.222656 217.128906 C 97.222656 215.972656 96.296875 215.046875 95.140625 215.046875 L 86.109375 215.046875 Z M 92.824219 219.445312 L 92.824219 231.714844 L 43.285156 231.714844 L 43.285156 219.445312 Z M 53.242188 163.195312 C 51.851562 160.878906 50.695312 158.101562 50 155.324219 C 49.769531 154.628906 49.074219 153.933594 48.378906 153.703125 L 38.425781 151.390625 L 38.425781 140.046875 L 48.378906 137.730469 C 49.074219 137.5 49.769531 137.035156 50 136.109375 C 50.695312 133.332031 51.851562 130.785156 53.242188 128.242188 C 53.703125 127.546875 53.703125 126.621094 53.242188 125.925781 L 47.683594 117.128906 L 55.785156 109.027344 L 64.582031 114.582031 C 65.277344 115.046875 66.203125 115.046875 66.667969 114.582031 C 69.214844 113.195312 71.757812 112.035156 74.535156 111.34375 C 75.230469 111.109375 75.925781 110.417969 76.15625 109.722656 L 78.472656 99.769531 L 81.945312 99.769531 L 81.945312 125.464844 C 71.992188 126.621094 64.121094 134.953125 64.121094 145.371094 C 64.121094 155.785156 71.992188 164.121094 81.945312 165.277344 L 81.945312 190.972656 L 78.472656 190.972656 L 76.15625 181.019531 C 75.925781 180.324219 75.464844 179.628906 74.769531 179.398438 C 71.757812 178.472656 69.214844 177.316406 66.898438 176.15625 C 66.203125 175.695312 65.277344 175.695312 64.582031 176.15625 L 55.554688 181.945312 L 47.453125 174.074219 L 53.007812 165.277344 C 53.472656 164.582031 53.472656 163.890625 53.242188 163.195312 Z M 81.714844 130.324219 L 81.714844 161.34375 C 74.074219 160.183594 68.054688 153.703125 68.054688 145.832031 C 68.054688 137.964844 74.074219 131.25 81.714844 130.324219 Z M 18.519531 187.269531 C 18.519531 135.417969 41.667969 87.5 81.714844 54.859375 L 81.714844 95.832031 L 76.390625 95.832031 C 75.464844 95.832031 74.535156 96.527344 74.304688 97.453125 L 71.992188 107.871094 C 69.90625 108.566406 67.59375 109.492188 65.507812 110.648438 L 56.480469 104.859375 C 55.554688 104.398438 54.628906 104.398438 53.703125 105.09375 L 43.285156 115.507812 C 42.59375 116.203125 42.359375 117.359375 43.054688 118.285156 L 48.84375 127.316406 C 47.683594 129.398438 46.757812 131.480469 46.066406 133.796875 L 35.648438 136.109375 C 34.722656 136.34375 34.027344 137.269531 34.027344 138.195312 L 34.027344 153.007812 C 34.027344 153.933594 34.722656 154.859375 35.648438 155.09375 L 46.066406 157.40625 C 46.757812 159.722656 47.683594 161.804688 48.84375 163.890625 L 43.054688 172.917969 C 42.59375 173.84375 42.59375 174.769531 43.285156 175.695312 L 53.703125 186.109375 C 54.398438 186.804688 55.554688 187.035156 56.480469 186.34375 L 65.507812 180.554688 C 67.59375 181.480469 69.675781 182.40625 71.992188 183.332031 L 74.304688 193.75 C 74.535156 194.675781 75.464844 195.371094 76.390625 195.371094 L 81.714844 195.371094 L 81.714844 215.046875 L 40.972656 215.046875 C 39.816406 215.046875 38.890625 215.972656 38.890625 217.128906 L 38.890625 233.796875 C 38.890625 234.953125 39.816406 235.878906 40.972656 235.878906 L 81.714844 235.878906 L 81.714844 241.667969 L 27.546875 241.667969 C 21.527344 224.074219 18.519531 205.785156 18.519531 187.269531 Z M 32.640625 258.332031 L 4.398438 258.332031 L 4.398438 246.066406 L 92.824219 246.066406 L 92.824219 258.332031 Z M 36.109375 262.5 L 81.714844 262.5 L 81.714844 296.992188 C 81.714844 301.621094 83.566406 305.554688 86.804688 308.566406 L 69.445312 308.566406 C 56.019531 295.371094 44.675781 279.859375 36.109375 262.5 Z M 189.121094 357.871094 C 145.832031 357.871094 104.859375 341.203125 73.84375 312.964844 L 304.167969 312.964844 C 273.378906 341.203125 232.640625 357.871094 189.121094 357.871094 Z M 309.027344 308.566406 L 291.667969 308.566406 C 294.675781 305.554688 296.757812 301.621094 296.757812 296.992188 L 296.757812 166.898438 C 297.222656 167.128906 297.683594 167.359375 298.148438 167.359375 L 309.492188 167.359375 C 310.648438 167.359375 311.574219 166.433594 311.574219 165.277344 C 311.574219 164.121094 310.648438 163.195312 309.492188 163.195312 L 298.148438 163.195312 C 297.683594 163.195312 297.222656 163.425781 296.757812 163.65625 L 296.757812 102.316406 C 297.222656 102.546875 297.683594 102.777344 298.148438 102.777344 L 309.492188 102.777344 C 310.648438 102.777344 311.574219 101.851562 311.574219 100.695312 C 311.574219 99.535156 310.648438 98.609375 309.492188 98.609375 L 298.148438 98.609375 C 297.683594 98.609375 297.222656 98.84375 296.757812 99.074219 L 296.757812 54.859375 C 336.804688 87.5 359.953125 135.417969 359.953125 187.269531 C 359.953125 190.742188 359.722656 194.214844 359.722656 197.683594 C 354.398438 194.214844 347.917969 192.128906 340.972656 192.128906 C 321.992188 192.128906 306.480469 207.640625 306.480469 226.621094 C 306.480469 245.601562 321.992188 261.109375 340.972656 261.109375 C 341.898438 261.109375 342.59375 261.109375 343.519531 260.878906 C 334.492188 278.703125 322.917969 294.90625 309.027344 308.566406 Z M 340.507812 256.480469 C 323.84375 256.480469 310.417969 243.054688 310.417969 226.390625 C 310.417969 209.722656 323.84375 196.296875 340.507812 196.296875 C 357.175781 196.296875 370.601562 209.722656 370.601562 226.390625 C 370.601562 243.054688 357.175781 256.480469 340.507812 256.480469 Z M 340.507812 256.480469 " fill-opacity="1" fill-rule="nonzero"/></g><path fill="#9d97cf" d="M 331.945312 230.09375 L 320.371094 224.769531 L 320.371094 224.535156 L 331.945312 219.214844 L 331.945312 215.507812 L 316.433594 222.683594 L 316.433594 226.851562 L 331.945312 234.027344 Z M 331.945312 230.09375 " fill-opacity="1" fill-rule="nonzero"/><path fill="#9d97cf" d="M 331.25 241.667969 L 334.492188 241.667969 L 348.84375 211.109375 L 345.601562 211.109375 Z M 331.25 241.667969 " fill-opacity="1" fill-rule="nonzero"/><path fill="#9d97cf" d="M 349.304688 219.214844 L 360.878906 224.535156 L 360.878906 224.769531 L 349.304688 230.09375 L 349.304688 234.027344 L 364.816406 226.851562 L 364.816406 222.683594 L 349.304688 215.507812 Z M 349.304688 219.214844 " fill-opacity="1" fill-rule="nonzero"/><path fill="#9d97cf" d="M 103.933594 100.925781 L 274.304688 100.925781 C 275.464844 100.925781 276.390625 100 276.390625 98.84375 L 276.390625 80.324219 C 276.390625 79.167969 275.464844 78.242188 274.304688 78.242188 L 103.933594 78.242188 C 102.777344 78.242188 101.851562 79.167969 101.851562 80.324219 L 101.851562 98.84375 C 101.851562 100 102.777344 100.925781 103.933594 100.925781 Z M 106.25 82.40625 L 272.222656 82.40625 L 272.222656 96.757812 L 106.25 96.757812 Z M 106.25 82.40625 " fill-opacity="1" fill-rule="nonzero"/><path fill="#9d97cf" d="M 140.046875 87.269531 L 118.054688 87.269531 C 116.898438 87.269531 115.972656 88.195312 115.972656 89.351562 C 115.972656 90.507812 116.898438 91.433594 118.054688 91.433594 L 140.046875 91.433594 C 141.203125 91.433594 142.128906 90.507812 142.128906 89.351562 C 142.128906 88.195312 141.203125 87.269531 140.046875 87.269531 Z M 140.046875 87.269531 " fill-opacity="1" fill-rule="nonzero"/><path fill="#9d97cf" d="M 180.09375 87.269531 L 158.101562 87.269531 C 156.945312 87.269531 156.019531 88.195312 156.019531 89.351562 C 156.019531 90.507812 156.945312 91.433594 158.101562 91.433594 L 180.09375 91.433594 C 181.25 91.433594 182.175781 90.507812 182.175781 89.351562 C 182.175781 88.195312 181.25 87.269531 180.09375 87.269531 Z M 180.09375 87.269531 " fill-opacity="1" fill-rule="nonzero"/><path fill="#9d97cf" d="M 220.140625 87.269531 L 198.148438 87.269531 C 196.992188 87.269531 196.066406 88.195312 196.066406 89.351562 C 196.066406 90.507812 196.992188 91.433594 198.148438 91.433594 L 220.140625 91.433594 C 221.296875 91.433594 222.222656 90.507812 222.222656 89.351562 C 222.453125 88.195312 221.296875 87.269531 220.140625 87.269531 Z M 220.140625 87.269531 " fill-opacity="1" fill-rule="nonzero"/><path fill="#9d97cf" d="M 260.183594 87.269531 L 238.195312 87.269531 C 237.035156 87.269531 236.109375 88.195312 236.109375 89.351562 C 236.109375 90.507812 237.035156 91.433594 238.195312 91.433594 L 260.183594 91.433594 C 261.34375 91.433594 262.269531 90.507812 262.269531 89.351562 C 262.5 88.195312 261.574219 87.269531 260.183594 87.269531 Z M 260.183594 87.269531 " fill-opacity="1" fill-rule="nonzero"/><path fill="#9d97cf" d="M 110.417969 154.398438 C 110.417969 224.769531 110.417969 222.917969 110.417969 223.148438 C 110.417969 224.535156 111.574219 225.230469 112.5 225.230469 C 190.507812 225.230469 184.722656 225.230469 265.507812 225.230469 C 266.667969 225.230469 267.59375 224.304688 267.59375 223.148438 L 267.59375 154.398438 C 267.59375 153.242188 266.667969 152.316406 265.507812 152.316406 L 112.730469 152.316406 C 111.34375 152.316406 110.417969 153.242188 110.417969 154.398438 Z M 116.667969 220.832031 L 150 169.214844 L 172.222656 203.703125 L 158.566406 220.832031 Z M 164.121094 220.832031 L 196.992188 179.167969 L 229.859375 220.832031 C 212.269531 220.832031 189.816406 220.832031 164.121094 220.832031 Z M 114.816406 156.480469 L 263.65625 156.480469 L 263.65625 220.832031 L 235.648438 220.832031 L 198.84375 174.535156 C 197.917969 173.609375 196.296875 173.609375 195.371094 174.535156 L 175 200.230469 L 151.851562 164.121094 C 151.15625 162.964844 149.074219 162.964844 148.148438 164.121094 L 114.816406 215.742188 Z M 114.816406 156.480469 " fill-opacity="1" fill-rule="nonzero"/><path fill="#9d97cf" d="M 240.046875 196.296875 C 249.769531 196.296875 257.640625 188.425781 257.640625 178.703125 C 257.640625 168.980469 249.769531 161.109375 240.046875 161.109375 C 230.324219 161.109375 222.453125 168.980469 222.453125 178.703125 C 222.222656 188.425781 230.324219 196.296875 240.046875 196.296875 Z M 240.046875 165.277344 C 247.453125 165.277344 253.472656 171.296875 253.472656 178.703125 C 253.472656 186.109375 247.453125 192.128906 240.046875 192.128906 C 232.640625 192.128906 226.621094 186.109375 226.621094 178.703125 C 226.621094 171.296875 232.640625 165.277344 240.046875 165.277344 Z M 240.046875 165.277344 " fill-opacity="1" fill-rule="nonzero"/><path fill="#9d97cf" d="M 103.933594 281.480469 L 183.796875 281.480469 C 184.953125 281.480469 185.878906 280.554688 185.878906 279.398438 L 185.878906 238.65625 C 185.878906 234.492188 183.101562 237.5 103.933594 236.574219 C 102.777344 236.574219 101.851562 237.5 101.851562 238.65625 L 101.851562 279.398438 C 101.851562 280.554688 102.777344 281.480469 103.933594 281.480469 Z M 106.25 240.742188 L 181.714844 240.742188 L 181.714844 277.082031 L 106.25 277.082031 Z M 106.25 240.742188 " fill-opacity="1" fill-rule="nonzero"/><path fill="#9d97cf" d="M 153.933594 257.175781 L 138.890625 248.609375 C 138.195312 248.148438 137.5 248.148438 136.804688 248.609375 C 136.109375 249.074219 135.648438 249.769531 135.648438 250.464844 L 135.648438 267.824219 C 135.648438 268.519531 136.109375 269.214844 136.804688 269.675781 C 137.5 270.140625 138.195312 270.140625 138.890625 269.675781 L 153.933594 261.109375 C 154.628906 260.648438 155.09375 259.953125 155.09375 259.257812 C 155.09375 258.566406 154.398438 257.40625 153.933594 257.175781 Z M 140.046875 263.890625 L 140.046875 254.167969 L 148.609375 259.027344 Z M 140.046875 263.890625 " fill-opacity="1" fill-rule="nonzero"/><path fill="#9d97cf" d="M 274.304688 236.34375 C 195.140625 237.269531 192.359375 234.257812 192.359375 238.425781 L 192.359375 279.167969 C 192.359375 280.324219 193.285156 281.25 194.445312 281.25 L 274.304688 281.25 C 275.464844 281.25 276.390625 280.324219 276.390625 279.167969 L 276.390625 238.425781 C 276.390625 237.269531 275.464844 236.34375 274.304688 236.34375 Z M 272.222656 277.082031 L 196.527344 277.082031 L 196.527344 240.742188 L 271.992188 240.742188 L 271.992188 277.082031 Z M 272.222656 277.082031 " fill-opacity="1" fill-rule="nonzero"/><path fill="#9d97cf" d="M 227.082031 269.445312 C 227.777344 269.90625 228.472656 269.90625 229.167969 269.445312 L 244.214844 260.878906 C 244.90625 260.417969 245.371094 259.722656 245.371094 259.027344 C 245.371094 258.332031 244.90625 257.640625 244.214844 257.175781 L 229.167969 248.609375 C 228.472656 248.148438 227.777344 248.148438 227.082031 248.609375 C 226.390625 249.074219 225.925781 249.769531 225.925781 250.464844 L 225.925781 267.824219 C 226.15625 268.285156 226.621094 268.980469 227.082031 269.445312 Z M 230.324219 253.933594 L 238.890625 258.796875 L 230.324219 263.65625 Z M 230.324219 253.933594 " fill-opacity="1" fill-rule="nonzero"/><path fill="#9d97cf" d="M 372.917969 156.480469 C 371.757812 156.480469 370.832031 157.40625 370.832031 158.566406 L 370.832031 162.964844 L 366.433594 162.964844 C 365.277344 162.964844 364.351562 163.890625 364.351562 165.046875 C 364.351562 166.203125 365.277344 167.128906 366.433594 167.128906 L 372.917969 167.128906 C 374.074219 167.128906 375 166.203125 375 165.046875 L 375 158.566406 C 375 157.640625 374.074219 156.480469 372.917969 156.480469 Z M 372.917969 156.480469 " fill-opacity="1" fill-rule="nonzero"/><path fill="#9d97cf" d="M 343.519531 167.359375 L 354.859375 167.359375 C 356.019531 167.359375 356.945312 166.433594 356.945312 165.277344 C 356.945312 164.121094 356.019531 163.195312 354.859375 163.195312 L 343.519531 163.195312 C 342.359375 163.195312 341.433594 164.121094 341.433594 165.277344 C 341.433594 166.433594 342.359375 167.359375 343.519531 167.359375 Z M 343.519531 167.359375 " fill-opacity="1" fill-rule="nonzero"/><path fill="#9d97cf" d="M 320.832031 167.359375 L 332.175781 167.359375 C 333.332031 167.359375 334.257812 166.433594 334.257812 165.277344 C 334.257812 164.121094 333.332031 163.195312 332.175781 163.195312 L 320.832031 163.195312 C 319.675781 163.195312 318.75 164.121094 318.75 165.277344 C 318.519531 166.433594 319.675781 167.359375 320.832031 167.359375 Z M 320.832031 167.359375 " fill-opacity="1" fill-rule="nonzero"/><path fill="#9d97cf" d="M 280.09375 167.359375 L 286.574219 167.359375 C 287.730469 167.359375 288.65625 166.433594 288.65625 165.277344 C 288.65625 164.121094 287.730469 163.195312 286.574219 163.195312 L 282.175781 163.195312 L 282.175781 158.796875 C 282.175781 157.640625 281.25 156.714844 280.09375 156.714844 C 278.933594 156.714844 278.007812 157.640625 278.007812 158.796875 L 278.007812 165.277344 C 278.007812 166.433594 278.933594 167.359375 280.09375 167.359375 Z M 280.09375 167.359375 " fill-opacity="1" fill-rule="nonzero"/><path fill="#9d97cf" d="M 280.09375 129.859375 C 281.25 129.859375 282.175781 128.933594 282.175781 127.777344 L 282.175781 117.359375 C 282.175781 116.203125 281.25 115.277344 280.09375 115.277344 C 278.933594 115.277344 278.007812 116.203125 278.007812 117.359375 L 278.007812 127.777344 C 278.007812 128.933594 278.933594 129.859375 280.09375 129.859375 Z M 280.09375 129.859375 " fill-opacity="1" fill-rule="nonzero"/><path fill="#9d97cf" d="M 280.09375 150.464844 C 281.25 150.464844 282.175781 149.535156 282.175781 148.378906 L 282.175781 137.964844 C 282.175781 136.804688 281.25 135.878906 280.09375 135.878906 C 278.933594 135.878906 278.007812 136.804688 278.007812 137.964844 L 278.007812 148.378906 C 278.007812 149.535156 278.933594 150.464844 280.09375 150.464844 Z M 280.09375 150.464844 " fill-opacity="1" fill-rule="nonzero"/><path fill="#9d97cf" d="M 280.09375 109.257812 C 281.25 109.257812 282.175781 108.332031 282.175781 107.175781 L 282.175781 102.777344 L 286.574219 102.777344 C 287.730469 102.777344 288.65625 101.851562 288.65625 100.695312 C 288.65625 99.535156 287.730469 98.609375 286.574219 98.609375 L 280.09375 98.609375 C 278.933594 98.609375 278.007812 99.535156 278.007812 100.695312 L 278.007812 107.175781 C 278.007812 108.332031 278.933594 109.257812 280.09375 109.257812 Z M 280.09375 109.257812 " fill-opacity="1" fill-rule="nonzero"/><path fill="#9d97cf" d="M 320.832031 102.777344 L 332.175781 102.777344 C 333.332031 102.777344 334.257812 101.851562 334.257812 100.695312 C 334.257812 99.535156 333.332031 98.609375 332.175781 98.609375 L 320.832031 98.609375 C 319.675781 98.609375 318.75 99.535156 318.75 100.695312 C 318.519531 101.851562 319.675781 102.777344 320.832031 102.777344 Z M 320.832031 102.777344 " fill-opacity="1" fill-rule="nonzero"/><path fill="#9d97cf" d="M 372.917969 98.609375 L 366.433594 98.609375 C 365.277344 98.609375 364.351562 99.535156 364.351562 100.695312 C 364.351562 101.851562 365.277344 102.777344 366.433594 102.777344 L 370.832031 102.777344 L 370.832031 107.175781 C 370.832031 108.332031 371.757812 109.257812 372.917969 109.257812 C 374.074219 109.257812 375 108.332031 375 107.175781 L 375 100.695312 C 375 99.535156 374.074219 98.609375 372.917969 98.609375 Z M 372.917969 98.609375 " fill-opacity="1" fill-rule="nonzero"/><path fill="#9d97cf" d="M 372.917969 135.878906 C 371.757812 135.878906 370.832031 136.804688 370.832031 137.964844 L 370.832031 148.378906 C 370.832031 149.535156 371.757812 150.464844 372.917969 150.464844 C 374.074219 150.464844 375 149.535156 375 148.378906 L 375 137.964844 C 375 136.804688 374.074219 135.878906 372.917969 135.878906 Z M 372.917969 135.878906 " fill-opacity="1" fill-rule="nonzero"/><path fill="#9d97cf" d="M 372.917969 115.277344 C 371.757812 115.277344 370.832031 116.203125 370.832031 117.359375 L 370.832031 127.777344 C 370.832031 128.933594 371.757812 129.859375 372.917969 129.859375 C 374.074219 129.859375 375 128.933594 375 127.777344 L 375 117.359375 C 375 116.203125 374.074219 115.277344 372.917969 115.277344 Z M 372.917969 115.277344 " fill-opacity="1" fill-rule="nonzero"/><path fill="#9d97cf" d="M 251.390625 112.5 C 251.390625 111.34375 250.464844 110.417969 249.304688 110.417969 L 128.933594 110.417969 C 127.777344 110.417969 126.851562 111.34375 126.851562 112.5 C 126.851562 113.65625 127.777344 114.582031 128.933594 114.582031 L 249.304688 114.582031 C 250.464844 114.582031 251.390625 113.65625 251.390625 112.5 Z M 251.390625 112.5 " fill-opacity="1" fill-rule="nonzero"/><path fill="#9d97cf" d="M 152.316406 123.609375 C 151.15625 123.609375 150.230469 124.535156 150.230469 125.695312 C 150.230469 126.851562 151.15625 127.777344 152.316406 127.777344 L 225.925781 127.777344 C 227.082031 127.777344 228.007812 126.851562 228.007812 125.695312 C 228.007812 124.535156 227.082031 123.609375 225.925781 123.609375 Z M 152.316406 123.609375 " fill-opacity="1" fill-rule="nonzero"/><path fill="#9d97cf" d="M 103.933594 288.425781 L 154.859375 288.425781 C 156.019531 288.425781 156.945312 287.5 156.945312 286.34375 C 156.945312 285.183594 156.019531 284.257812 154.859375 284.257812 L 103.933594 284.257812 C 102.777344 284.257812 101.851562 285.183594 101.851562 286.34375 C 101.851562 287.269531 102.777344 288.425781 103.933594 288.425781 Z M 103.933594 288.425781 " fill-opacity="1" fill-rule="nonzero"/><path fill="#9d97cf" d="M 245.371094 284.027344 L 194.445312 284.027344 C 193.285156 284.027344 192.359375 284.953125 192.359375 286.109375 C 192.359375 287.269531 193.285156 288.195312 194.445312 288.195312 L 245.371094 288.195312 C 246.527344 288.195312 247.453125 287.269531 247.453125 286.109375 C 247.453125 284.953125 246.527344 284.027344 245.371094 284.027344 Z M 245.371094 284.027344 " fill-opacity="1" fill-rule="nonzero"/><path fill="#9d97cf" d="M 104.628906 40.046875 C 100.695312 40.046875 97.683594 43.285156 97.683594 46.992188 C 97.683594 50.695312 100.925781 53.933594 104.628906 53.933594 C 108.332031 53.933594 111.574219 50.695312 111.574219 46.992188 C 111.574219 43.285156 108.566406 40.046875 104.628906 40.046875 Z M 104.628906 49.769531 C 103.242188 49.769531 101.851562 48.609375 101.851562 46.992188 C 101.851562 45.601562 103.007812 44.214844 104.628906 44.214844 C 106.019531 44.214844 107.40625 45.371094 107.40625 46.992188 C 107.40625 48.609375 106.25 49.769531 104.628906 49.769531 Z M 104.628906 49.769531 " fill-opacity="1" fill-rule="nonzero"/><path fill="#9d97cf" d="M 122.917969 40.046875 C 118.980469 40.046875 115.972656 43.285156 115.972656 46.992188 C 115.972656 50.695312 119.214844 53.933594 122.917969 53.933594 C 126.621094 53.933594 129.859375 50.695312 129.859375 46.992188 C 129.859375 43.285156 126.851562 40.046875 122.917969 40.046875 Z M 122.917969 49.769531 C 121.527344 49.769531 120.140625 48.609375 120.140625 46.992188 C 120.140625 45.601562 121.296875 44.214844 122.917969 44.214844 C 124.304688 44.214844 125.695312 45.371094 125.695312 46.992188 C 125.695312 48.609375 124.304688 49.769531 122.917969 49.769531 Z M 122.917969 49.769531 " fill-opacity="1" fill-rule="nonzero"/><path fill="#9d97cf" d="M 141.203125 40.046875 C 137.269531 40.046875 134.257812 43.285156 134.257812 46.992188 C 134.257812 50.695312 137.5 53.933594 141.203125 53.933594 C 145.140625 53.933594 148.148438 50.695312 148.148438 46.992188 C 148.148438 43.285156 144.90625 40.046875 141.203125 40.046875 Z M 141.203125 49.769531 C 139.816406 49.769531 138.425781 48.609375 138.425781 46.992188 C 138.425781 45.601562 139.582031 44.214844 141.203125 44.214844 C 142.59375 44.214844 143.980469 45.371094 143.980469 46.992188 C 143.75 48.609375 142.59375 49.769531 141.203125 49.769531 Z M 141.203125 49.769531 " fill-opacity="1" fill-rule="nonzero"/><path fill="#9d97cf" d="M 273.609375 39.351562 L 163.65625 39.351562 C 159.492188 39.351562 156.019531 42.824219 156.019531 46.992188 C 156.019531 51.15625 159.492188 54.628906 163.65625 54.628906 L 273.378906 54.628906 C 277.546875 54.628906 281.019531 51.15625 281.019531 46.992188 C 281.25 42.824219 277.777344 39.351562 273.609375 39.351562 Z M 273.609375 50.464844 L 163.65625 50.464844 C 161.804688 50.464844 160.417969 49.074219 160.417969 47.222656 C 160.417969 45.371094 161.804688 43.980469 163.65625 43.980469 L 273.378906 43.980469 C 275.230469 43.980469 276.621094 45.371094 276.621094 47.222656 C 276.851562 48.84375 275.230469 50.464844 273.609375 50.464844 Z M 273.609375 50.464844 " fill-opacity="1" fill-rule="nonzero"/><g clip-path="url(#931f4244c0)"><path fill="#9d97cf" d="M 220.035156 236.390625 L 243.164062 236.390625 L 243.164062 240.140625 L 220.035156 240.140625 Z M 220.035156 236.390625 " fill-opacity="1" fill-rule="nonzero"/></g></svg>