<?xml version="1.0" encoding="UTF-8"?>
<svg id="Calque_2" xmlns="http://www.w3.org/2000/svg" viewBox="0 0 140.77 77.17">
  <defs>
    <style>
      .cls-1 {
        fill: #3e618c;
      }

      .cls-2 {
        fill: #9d97ca;
      }
    </style>
  </defs>
  <g id="LOGO_MIN">
    <g id="Calque_2-2" data-name="Calque_2">
      <path class="cls-2" d="M131.67,3.63v1.65c-3.38.36-6.11,6.44-6.4,14.14h-.02v3.24l-12.32-12.32c-1.17-2.95-2.82-4.86-4.67-5.06v-1.65h23.41Z"/>
    </g>
    <g id="Calque_1-2" data-name="Calque_1">
      <path class="cls-2" d="M23.65,71.98v1.65h-14.79v-1.65c3.38-.36,6.11-6.44,6.4-14.14h.02v-25.32l2.02-2.02v28.34c.48,7.22,3.12,12.8,6.35,13.14Z"/>
      <path class="cls-2" d="M131.67,71.98v1.65h-23.41v-1.65c2.13-.23,4-2.72,5.16-6.46.69-2.19,1.13-4.83,1.24-7.68h.02v-20.41h-34.97v22.53c.66,6.67,3.19,11.69,6.25,12.02v1.65h-23.23v-1.65c3.38-.36,6.11-6.44,6.4-14.14h.02V19.42h-.02c-.07-1.96-.3-3.82-.66-5.5l-18.63,32.27-.37.64-5.72,9.85-1.17-1.95-18.64-30.87-3.32-5.48-3.32-5.5v8.82l-2.02,2.02v-4.3h-.02c-.29-7.7-3.02-13.78-6.4-14.14v-1.65h15.28l4.23,7,3.31,5.49,16.96,28.1,19.07-33.03c-1.17-3.43-2.96-5.69-4.98-5.91v-1.65h23.23v1.65c-3.06.33-5.59,5.35-6.25,12.02v18.35h34.97v-14.76l10.57,10.57v26.38h.02c.29,7.7,3.02,13.78,6.4,14.14Z"/>
    </g>
    <g id="Calque_4">
      <polygon class="cls-1" points="42.58 5.22 31.68 16.12 28.37 10.63 38.18 .82 42.58 5.22"/>
      <polygon class="cls-1" points="23.94 23.86 17.3 30.5 15.28 32.52 8.8 39 15.28 45.48 15.28 54.28 0 39 4.4 34.6 20.62 18.38 23.94 23.86"/>
      <polygon class="cls-1" points="42.58 72.77 38.18 77.17 17.3 56.3 17.3 47.5 42.58 72.77"/>
      <polygon class="cls-1" points="125.25 44.9 131.97 38.18 125.25 31.46 98.19 4.4 102.59 0 112.93 10.34 136.37 33.78 140.77 38.18 125.25 53.7 125.25 44.9"/>
      <path class="cls-1" d="M114.68,55.46v2.38h-.02c-.11,2.85-.55,5.49-1.24,7.68l-10.83,10.83-4.4-4.4,16.49-16.49Z"/>
    </g>
  </g>
</svg>