<svg width="141" height="78" viewBox="0 0 141 78" fill="none" xmlns="http://www.w3.org/2000/svg">
<g clip-path="url(#clip0_136_34)">
<path d="M131.67 3.63V5.28C128.29 5.64 125.56 11.72 125.27 19.42H125.25V22.66L112.93 10.34C111.76 7.39 110.11 5.48 108.26 5.28V3.63H131.67Z" fill="#3E618B"/>
<path d="M23.65 71.98V73.63H8.85999V71.98C12.24 71.62 14.97 65.54 15.26 57.84H15.28V32.52L17.3 30.5V58.84C17.78 66.06 20.42 71.64 23.65 71.98Z" fill="#3E618B"/>
<path d="M131.67 71.98V73.63H108.26V71.98C110.39 71.75 112.26 69.26 113.42 65.52C114.11 63.33 114.55 60.69 114.66 57.84H114.68V37.43H79.71V59.96C80.37 66.63 82.9 71.65 85.96 71.98V73.63H62.73V71.98C66.11 71.62 68.84 65.54 69.13 57.84H69.15V19.42H69.13C69.06 17.46 68.83 15.6 68.47 13.92L49.84 46.19L49.47 46.83L43.75 56.68L42.58 54.73L23.94 23.86L20.62 18.38L17.3 12.88V21.7L15.28 23.72V19.42H15.26C14.97 11.72 12.24 5.64 8.85999 5.28V3.63H24.14L28.37 10.63L31.68 16.12L48.64 44.22L67.71 11.19C66.54 7.76 64.75 5.5 62.73 5.28V3.63H85.96V5.28C82.9 5.61 80.37 10.63 79.71 17.3V35.65H114.68V20.89L125.25 31.46V57.84H125.27C125.56 65.54 128.29 71.62 131.67 71.98Z" fill="#3E618B"/>
<path d="M42.58 5.21995L31.68 16.1199L28.37 10.6299L38.18 0.819946L42.58 5.21995Z" fill="#9D97CF"/>
<path d="M23.94 23.86L17.3 30.5L15.28 32.52L8.8 39L15.28 45.48V54.28L0 39L4.4 34.6L20.62 18.38L23.94 23.86Z" fill="#9D97CF"/>
<path d="M42.58 72.77L38.18 77.17L17.3 56.3V47.5L42.58 72.77Z" fill="#9D97CF"/>
<path d="M125.25 44.9L131.97 38.18L125.25 31.46L98.19 4.4L102.59 0L112.93 10.34L136.37 33.78L140.77 38.18L125.25 53.7V44.9Z" fill="#9D97CF"/>
<path d="M114.68 55.46V57.84H114.66C114.55 60.69 114.11 63.33 113.42 65.52L102.59 76.35L98.19 71.95L114.68 55.46Z" fill="#9D97CF"/>
</g>
<defs>
<clipPath id="clip0_136_34">
<rect width="140.77" height="77.17" fill="white"/>
</clipPath>
</defs>
</svg>
